<svg xmlns="http://www.w3.org/2000/svg" viewBox="0 0 96.9 20.91"><path d="M8.45,7.82l3.67-6.74h4.64l-5.7,9.7,5.84,9.86H12.21L8.45,13.79,4.69,20.64H0l5.84-9.86L.15,1.07H4.78Zm15.69,6H16.58V10.7h7.56ZM43,18.17a7,7,0,0,1-3.08,2,13,13,0,0,1-4.41.71,8.81,8.81,0,0,1-4.46-1.1,7.49,7.49,0,0,1-3-3.22,11.39,11.39,0,0,1-1.06-5V10.29a12.05,12.05,0,0,1,1-5.07,7.31,7.31,0,0,1,2.85-3.28A8.2,8.2,0,0,1,35.23.81a8.15,8.15,0,0,1,5.44,1.67A7.07,7.07,0,0,1,43,7.3H39.07a3.88,3.88,0,0,0-1.2-2.46,3.77,3.77,0,0,0-2.53-.78A3.57,3.57,0,0,0,32.22,5.6a8.13,8.13,0,0,0-1.09,4.6v1.25A7.73,7.73,0,0,0,32.3,16.1a4,4,0,0,0,3.43,1.57,4.47,4.47,0,0,0,3.24-1V13.33H35.3v-3H43Zm11.73,1a4.87,4.87,0,0,1-4,1.75,4.61,4.61,0,0,1-3.57-1.34,5.76,5.76,0,0,1-1.25-3.94V6.1h3.88v9.39q0,2.27,2.07,2.27a2.8,2.8,0,0,0,2.71-1.37V6.1h3.9V20.64H54.83Zm10.79,1.48h-3.9V6.1h3.9ZM61.39,2.34A1.92,1.92,0,0,1,62,.9a2.53,2.53,0,0,1,3.18,0,1.9,1.9,0,0,1,.59,1.44,1.9,1.9,0,0,1-.6,1.45,2.18,2.18,0,0,1-1.57.56A2.23,2.23,0,0,1,62,3.79,1.92,1.92,0,0,1,61.39,2.34Zm6.73,10.92a8.79,8.79,0,0,1,1.52-5.41,5,5,0,0,1,4.18-2,4.45,4.45,0,0,1,3.51,1.59V0h3.9V20.64H77.71l-.19-1.55a4.57,4.57,0,0,1-3.74,1.81,5,5,0,0,1-4.12-2A9.1,9.1,0,0,1,68.12,13.26Zm3.88.28a5.72,5.72,0,0,0,.71,3.13,2.32,2.32,0,0,0,2.07,1.09,2.6,2.6,0,0,0,2.54-1.52V10.51A2.56,2.56,0,0,0,74.81,9Q72,9,72,13.54Zm18.92,7.36a7.16,7.16,0,0,1-5.21-2,7,7,0,0,1-2-5.23v-.38a8.74,8.74,0,0,1,.85-3.91,6.18,6.18,0,0,1,2.39-2.66,6.73,6.73,0,0,1,3.55-.94,6,6,0,0,1,4.69,1.88A7.62,7.62,0,0,1,96.9,13v1.59H87.64a3.62,3.62,0,0,0,1.13,2.28,3.46,3.46,0,0,0,2.41.86,4.19,4.19,0,0,0,3.51-1.63l1.91,2.14a5.88,5.88,0,0,1-2.36,1.93A7.82,7.82,0,0,1,90.92,20.91ZM90.48,9a2.45,2.45,0,0,0-1.88.78A4.06,4.06,0,0,0,87.68,12h5.4v-.31a2.85,2.85,0,0,0-.7-2A2.5,2.5,0,0,0,90.48,9Z"/></svg>