<svg xmlns="http://www.w3.org/2000/svg" viewBox="0 0 19.5 19.5"><path d="M17.76,19.5A18,18,0,0,1,0,1.74,1.77,1.77,0,0,1,1.94,0H5.4A1.74,1.74,0,0,1,7.14,1.74,10.38,10.38,0,0,0,7.66,5a1.78,1.78,0,0,1-.41,1.78l-.11.09L3.52,9.47a16.83,16.83,0,0,0,6.93,6.73l2.24-3.92a1.73,1.73,0,0,1,1.78-.42,10.65,10.65,0,0,0,3.29.52,1.74,1.74,0,0,1,1.74,1.74v3.45A1.78,1.78,0,0,1,17.76,19.5Zm-5.94-2.67A15.76,15.76,0,0,0,17.76,18c.22,0,.24-.33.24-.43V14.12a.25.25,0,0,0-.24-.24,12.19,12.19,0,0,1-3.76-.6.24.24,0,0,0-.19,0ZM1.94,1.5c-.44,0-.44.18-.44.24A15.78,15.78,0,0,0,2.85,8.11L6.2,5.73a.27.27,0,0,0,0-.24,11.86,11.86,0,0,1-.59-3.75A.25.25,0,0,0,5.4,1.5Z"/></svg>