<svg xmlns="http://www.w3.org/2000/svg" viewBox="0 0 16.5 8.5"><path d="M.25.58A.34.34,0,0,1,.6.25a.36.36,0,0,1,.25.1l7.41,7.1L15.66.35a.36.36,0,0,1,.49,0,.32.32,0,0,1,0,.47L8.5,8.15a.36.36,0,0,1-.49,0L.35.82A.33.33,0,0,1,.25.58Zm8,7.92a.6.6,0,0,1-.42-.17L.18,1A.58.58,0,0,1,0,.58H0A.57.57,0,0,1,.18.17.62.62,0,0,1,1,.17L8.25,7.1,15.48.17a.61.61,0,0,1,.84,0,.57.57,0,0,1,0,.83L8.67,8.33A.6.6,0,0,1,8.25,8.5ZM.6.5A.1.1,0,0,0,.5.58h0a.08.08,0,0,0,0,.06L8.18,8a.11.11,0,0,0,.15,0L16,.64l.17-.29L16,.53a.11.11,0,0,0-.15,0L8.25,7.79.67.53A.11.11,0,0,0,.6.5Z"/></svg>