<svg xmlns="http://www.w3.org/2000/svg" viewBox="0 0 14 12"><path d="M7,1A4.27,4.27,0,0,0,4.2,0a4.36,4.36,0,0,0-1.6.31,4.19,4.19,0,0,0-1.36.87,3.79,3.79,0,0,0,0,5.61l5.15,4.89A.71.71,0,0,0,7,12a.72.72,0,0,0,.31-.07.69.69,0,0,0,.24-.2l5.2-4.94a3.8,3.8,0,0,0,0-5.61A4.19,4.19,0,0,0,11.41.3,4.36,4.36,0,0,0,9.81,0,4.27,4.27,0,0,0,7,1Zm4.77,1.07a2.52,2.52,0,0,1,0,3.73L7,10.37,2.23,5.84a2.52,2.52,0,0,1,0-3.72,2.85,2.85,0,0,1,3.92,0l.35.33a.7.7,0,0,0,.23.14.74.74,0,0,0,.54,0,.7.7,0,0,0,.23-.14l.35-.33A2.93,2.93,0,0,1,11.77,2.11Z"/></svg>