<svg xmlns="http://www.w3.org/2000/svg" viewBox="0 0 14 14"><path d="M7,8a.31.31,0,0,1-.25-.12.52.52,0,0,1-.09-.32,2.07,2.07,0,0,1,.18-.91,4.66,4.66,0,0,1,.52-.81,4.58,4.58,0,0,0,.39-.58,1.09,1.09,0,0,0,.13-.53.62.62,0,0,0-.22-.51A.85.85,0,0,0,7,4a1.31,1.31,0,0,0-.62.16,5.12,5.12,0,0,0-.69.43.76.76,0,0,1-.37.14.34.34,0,0,1-.27-.15A.62.62,0,0,1,5,4.21a.56.56,0,0,1,.21-.46A2.69,2.69,0,0,1,6.1,3.2a2.75,2.75,0,0,1,1-.2,2.18,2.18,0,0,1,1,.2,1.57,1.57,0,0,1,.66.56A1.45,1.45,0,0,1,9,4.6a1.71,1.71,0,0,1-.22.89,5.47,5.47,0,0,1-.65.84A6.42,6.42,0,0,0,7.57,7a1.45,1.45,0,0,0-.22.62.41.41,0,0,1-.13.24A.34.34,0,0,1,7,8Zm0,2a.62.62,0,0,1-.47-.2.77.77,0,0,1-.19-.53.73.73,0,0,1,.19-.52.63.63,0,0,1,.95,0,.73.73,0,0,1,.19.52.75.75,0,0,1-.2.53A.61.61,0,0,1,7,10Zm0,4a7,7,0,1,1,7-7A7,7,0,0,1,7,14ZM7,1a6,6,0,1,0,6,6A6,6,0,0,0,7,1Z"/></svg>