<svg  xmlns="http://www.w3.org/2000/svg" viewBox="0 0 12 12"><path d="M4,6A2,2,0,1,1,6,8,2,2,0,0,1,4,6ZM2.92,6A3.08,3.08,0,1,0,6,2.92,3.08,3.08,0,0,0,2.92,6ZM8.48,2.8a.72.72,0,1,0,.72-.72h0a.72.72,0,0,0-.72.72ZM3.58,10.88a3.32,3.32,0,0,1-1.11-.21,1.87,1.87,0,0,1-.69-.45,1.85,1.85,0,0,1-.45-.69,3.31,3.31,0,0,1-.21-1.11c0-.63,0-.82,0-2.42s0-1.79,0-2.42a3.34,3.34,0,0,1,.21-1.11,1.86,1.86,0,0,1,.45-.69,1.85,1.85,0,0,1,.69-.45,3.31,3.31,0,0,1,1.11-.21c.63,0,.82,0,2.42,0s1.79,0,2.42,0a3.34,3.34,0,0,1,1.11.21,1.86,1.86,0,0,1,.69.45,1.86,1.86,0,0,1,.45.69,3.31,3.31,0,0,1,.21,1.11c0,.63,0,.82,0,2.42s0,1.79,0,2.42a3.33,3.33,0,0,1-.21,1.11,2,2,0,0,1-1.14,1.14,3.32,3.32,0,0,1-1.11.21c-.63,0-.82,0-2.42,0S4.21,10.91,3.58,10.88ZM3.53,0A4.4,4.4,0,0,0,2.07.32,2.94,2.94,0,0,0,1,1,2.93,2.93,0,0,0,.32,2.07,4.4,4.4,0,0,0,0,3.53C0,4.17,0,4.37,0,6S0,7.83,0,8.47A4.4,4.4,0,0,0,.32,9.93,2.93,2.93,0,0,0,1,11a3,3,0,0,0,1.06.69A4.4,4.4,0,0,0,3.53,12c.64,0,.84,0,2.47,0s1.83,0,2.47,0a4.4,4.4,0,0,0,1.46-.28,3.07,3.07,0,0,0,1.75-1.75A4.39,4.39,0,0,0,12,8.47c0-.64,0-.84,0-2.47s0-1.83,0-2.47a4.4,4.4,0,0,0-.28-1.46A3,3,0,0,0,11,1,2.94,2.94,0,0,0,9.93.32,4.39,4.39,0,0,0,8.47,0C7.83,0,7.63,0,6,0S4.17,0,3.53,0Z"/></svg>