<svg width="22" height="16" viewBox="0 0 22 16" fill="none" xmlns="http://www.w3.org/2000/svg">
<path fill-rule="evenodd" clip-rule="evenodd" d="M19.6078 0.471168C20.5502 0.724873 21.2932 1.46787 21.5469 2.4102C22.018 4.13178 21.9999 7.7199 21.9999 7.7199C21.9999 7.7199 21.9999 11.2899 21.5469 13.0115C21.2932 13.9538 20.5502 14.6968 19.6078 14.9505C17.8862 15.4036 11 15.4036 11 15.4036C11 15.4036 4.13178 15.4036 2.39208 14.9324C1.44975 14.6787 0.706752 13.9357 0.453046 12.9934C0 11.2899 0 7.70178 0 7.70178C0 7.70178 0 4.13178 0.453046 2.4102C0.706752 1.46787 1.46787 0.706752 2.39208 0.453046C4.11366 0 11 0 11 0C11 0 17.8862 0 19.6078 0.471168ZM14.5351 7.70175L8.80859 10.9999V4.40358L14.5351 7.70175Z" fill="#12214D"/>
</svg>
