<svg xmlns="http://www.w3.org/2000/svg" viewBox="0 0 64.97 16.91"><defs><style>.cls-1{fill:#fff;}.cls-1,.cls-2{fill-rule:evenodd;}.cls-2{fill:#f9cc46;}</style></defs><path class="cls-1" d="M34.94,4.13c.15.17,1.56,4.22,1.71,4.72a7,7,0,0,0,.61,1.53c.49.12.54-.41.68-.83.8-2.27,2-5.57,2.62-7.8C41,.67,41,.38,40.26.38s-.68.54-1,1.24C39,3,38,5.75,37.6,7c0,.17,0,.17-.19.17C36.78,5.29,36,3,35.32,1.05c-.19-.37-.53-.45-.76.38-.38,1.32-.92,2.88-1.33,4.16,0,0-.5,1.62-.53,1.7a4.9,4.9,0,0,1-.57-1.49c-.57-1.53-1.07-3.17-1.56-4.7-.12-.29-.12-.46-.38-.63a1.43,1.43,0,0,0-.84-.08c-.75.13-.27.79-.11,1.28.92,2.68,1.94,5.91,3,8.47a.36.36,0,0,0,.11.16.38.38,0,0,0,.17.08.31.31,0,0,0,.19,0,.44.44,0,0,0,.15-.12C33,9.92,34.83,4.13,34.94,4.13Z"/><path class="cls-1" d="M.17.55a.85.85,0,0,0,0,.5c.16.7-.3,8.67-.18,9a1.75,1.75,0,0,0,1.19.12c.18-.21.11-.41.11-.74,0-1.41.11-2.77.11-4.22,0-.54.08-.91.08-1.23s0-.29.07-.37A20.25,20.25,0,0,1,3,6c.23.49.68,1.24,1,1.82.46.91.69.29.8.08C5,7.57,7.09,3.65,7.23,3.57c.14.16.14,4.08.14,4.37,0,2.15-.23,2.36,1,2.27.39,0,.42-.33.39-.7V7.32c-.1-1.78-.18-3.8-.18-5.57,0-.21.08-1,.08-1.12A.75.75,0,0,0,8.24.37a.69.69,0,0,0-.48.09c-.27.17-.34.54-.54.79C6.45,2.74,5.41,4.42,4.69,5.83c-.27.5-.27.33-.5,0C3.7,5,3.05,3.69,2.6,2.9L1.68,1.25A3.34,3.34,0,0,0,1.2.46C.94.26.43.42.17.55Z"/><path class="cls-1" d="M48.66,5.17a2.54,2.54,0,0,1,1.12-.57A2.38,2.38,0,0,1,51,4.67c1.21.58,1.37,2.53.84,3.48a2,2,0,0,1-.94.81,1.83,1.83,0,0,1-1.2.08,2.59,2.59,0,0,1-1.06-.5Zm0-1.4a29.72,29.72,0,0,1,0-3.27c0-.45-.15-.53-.54-.37-.91.42-.91.25-.79,1.16.08.46,0,5.78,0,6.53,0,1.48-.19,1.82,1.79,2.44a3.9,3.9,0,0,0,1.7,0,4.12,4.12,0,0,0,1.58-.72c1.94-1.73,1.4-6.6-2.13-6.23a4.73,4.73,0,0,0-.92.12c-.12,0-.57.33-.63.33Z"/><path class="cls-1" d="M21.86,10.13A4.16,4.16,0,0,0,22,8.52a12.06,12.06,0,0,1,0-1.7c.11,0,.23.21.46.46s2.12,2.4,2.43,2.64a.86.86,0,0,0,.8.25c.26,0,.68,0,.83-.2s-.53-.75-.76-1-.52-.57-.79-.91a16.63,16.63,0,0,1-1.64-1.81c0-.09,2.09-2,2.47-2.35.15-.17.31-.21.27-.46a2.25,2.25,0,0,0-1.45,0c-.18.09-1.44,1.32-1.78,1.65-.11.12-.77.87-.84.83-.11-.38,0-5.54-.07-5.83s-1.37.17-1.34.67a4.8,4.8,0,0,1,.11,1.07V9c0,.25-.07,1,.09,1.12A2.37,2.37,0,0,0,21.86,10.13Z"/><path class="cls-1" d="M12,6.74c.43-.12,1.84.25,1.91.66a9.84,9.84,0,0,1,0,1.33c-.27.37-2.1,1.11-2.71-.21a1.56,1.56,0,0,1,0-1.2,1.27,1.27,0,0,1,.35-.38A1.08,1.08,0,0,1,12,6.74Zm1.94-.5a3.35,3.35,0,0,0-1.17-.53,4.15,4.15,0,0,0-1.57.12,2.19,2.19,0,0,0-1.08.8A2.45,2.45,0,0,0,9.65,8,2.4,2.4,0,0,0,10,9.33a2.15,2.15,0,0,0,1.05.84,3.2,3.2,0,0,0,2.24,0c.16-.08.46-.29.57-.33s.16.29.31.37a1.43,1.43,0,0,0,1-.2c.19-.2.22-.17.11-.46a2.2,2.2,0,0,1-.19-1.24v-3a1.89,1.89,0,0,0-.26-1.19c-.73-1.57-5.1-.95-4.76.37s.92-.45,2.85-.21c1,.12.93,1.2.93,1.94Z"/><path class="cls-1" d="M58.89,6H55.73A1.92,1.92,0,0,1,56.22,5a1.75,1.75,0,0,1,1.07-.48,1.42,1.42,0,0,1,.61.07,1.74,1.74,0,0,1,.53.33,1.47,1.47,0,0,1,.36.52A1.56,1.56,0,0,1,58.89,6ZM55.65,7.11c.23-.12,3.68,0,4.3,0s.34-2.23-.8-3.13a2.91,2.91,0,0,0-1.6-.66,2.84,2.84,0,0,0-1.67.38A3.23,3.23,0,0,0,54.65,5a3.51,3.51,0,0,0-.41,1.8,3.54,3.54,0,0,0,.38,1.76,3.3,3.3,0,0,0,1.15,1.3c1,.75,3.76.71,4.1-.45.42-1.49-.57-.66-.92-.5a3.22,3.22,0,0,1-.92.25A2,2,0,0,1,55.65,7.11Z"/><path class="cls-1" d="M41.86,6a1.76,1.76,0,0,1,.5-1.11,1.56,1.56,0,0,1,1.06-.46A1.44,1.44,0,0,1,45,6ZM41.7,7H46c.49,0,.41-.33.37-.74a3.29,3.29,0,0,0-.46-1.56,3,3,0,0,0-1.11-1.11,2.81,2.81,0,0,0-1.47-.36,2.71,2.71,0,0,0-1.44.47A3.28,3.28,0,0,0,40.7,5.05a3.63,3.63,0,0,0-.36,1.78,3.3,3.3,0,0,0,.37,1.75A2.94,2.94,0,0,0,41.9,9.83c1.29.87,3.84.5,4.07-.49,0-.29.18-1-.23-.83a4.83,4.83,0,0,1-1.61.63,2.13,2.13,0,0,1-1.71-.5C42.09,8.35,41.56,7.48,41.7,7Z"/><path class="cls-1" d="M62.34,10.17c.23-.25.2-.37.2-.74v-1c0-1.32-.23-3.51,1.17-3.84.3-.08.38.2.76.12A1.94,1.94,0,0,0,65,3.9c0-.63-.92-.75-1.75-.34-.27.13-.49.57-.68.61,0-.36.07-.52-.16-.85a2,2,0,0,0-.84.29c-.37.2-.45.2-.37.69s0,3.93,0,4.75C61.2,10.3,61.2,10.26,62.34,10.17Z"/><path class="cls-1" d="M17.53,10.13v-.08A19.56,19.56,0,0,0,17.62,7c0-.79.18-2.07,1-2.32.64-.24.68.41,1.1,0,1-1.11-.34-1.56-1.14-1.19s-.69.66-.92.74a4,4,0,0,1,0-.49c0-.21-.08-.21-.15-.33a1.41,1.41,0,0,0-.84.25c-.38.16-.49.2-.38.7a14.7,14.7,0,0,1,.08,2.3V8.93C16.43,10.17,16.27,10.26,17.53,10.13Z"/><path class="cls-2" d="M34.67,11.46a19.3,19.3,0,0,0-4.45,1.15c-.45.21-.91.33-1.36.53-.92.37-1.79.7-2.7,1.08-.3.12-2.47.82-2.85.91-1.83.49-4.59,1.07-6.35.2-.83-.45-.91,1,1,1.45a7.13,7.13,0,0,0,3.34-.16c.92-.21,2-.58,2.9-.87s1.9-.62,2.85-.91c.23-.09.41-.17.68-.25l1.4-.46c.27-.08.46-.2.69-.29l1.45-.37c.27-.08.46-.16.69-.25a25.74,25.74,0,0,1,5.86-.65,12.53,12.53,0,0,1,1.7.21c.92.12.72-.41.12-.75A8.89,8.89,0,0,0,34.67,11.46Z"/></svg>