<svg id="Слой_1" data-name="Слой 1" xmlns="http://www.w3.org/2000/svg" viewBox="0 0 448.75 44.63"><defs><style>.cls-1{fill:#edf3fb;}</style></defs><title>quote-bottom-2</title><path class="cls-1" d="M63.63,44.63a1.62,1.62,0,0,1-.78-.2A1.6,1.6,0,0,1,62,43V22.51A10.39,10.39,0,0,0,51.63,12.13h-42A9.64,9.64,0,0,1,0,2.51V0H.25V2.51a9.39,9.39,0,0,0,9.38,9.37h42A10.64,10.64,0,0,1,62.25,22.51V43a1.37,1.37,0,0,0,2.13,1.15L111.3,13.6a10.61,10.61,0,0,1,5.8-1.72h322a9.39,9.39,0,0,0,9.38-9.37V0h.25V2.51a9.64,9.64,0,0,1-9.62,9.62h-322a10.35,10.35,0,0,0-5.66,1.68L64.51,44.37A1.62,1.62,0,0,1,63.63,44.63Z"/></svg>